<svg width="51" height="48" viewBox="0 0 51 48" fill="none" xmlns="http://www.w3.org/2000/svg">
<path fill-rule="evenodd" clip-rule="evenodd" d="M4.05459 12.1467C4.31924 10.9686 4.96981 9.91683 5.89976 9.16349C6.82971 8.41014 7.98391 7.99992 9.17334 8H40.6733C41.8628 7.99992 43.017 8.41014 43.9469 9.16349C44.8769 9.91683 45.5274 10.9686 45.7921 12.1467L24.9233 25.104L4.05459 12.1467ZM3.92334 15.192V34.136L19.1562 24.648L3.92334 15.192ZM21.671 26.2133L4.42471 36.952C4.85082 37.8648 5.52335 38.6358 6.36402 39.1754C7.20469 39.715 8.17892 40.001 9.17334 40H40.6733C41.6676 40.0002 42.6415 39.7136 43.4817 39.1736C44.3218 38.6335 44.9938 37.8622 45.4193 36.9493L28.1731 26.2107L24.9233 28.2293L21.671 26.2107V26.2133ZM30.6905 24.6507L45.9233 34.136V15.192L30.6905 24.648V24.6507Z" fill="#25282B"/>
</svg>
