<svg width="51" height="48" viewBox="0 0 51 48" fill="none" xmlns="http://www.w3.org/2000/svg">
<path d="M6.05664 7.72175C6.05664 6.21837 7.33504 5 8.91238 5H42.0876C43.6649 5 44.9433 6.21837 44.9433 7.72175V40.2783C44.9433 41.7816 43.6649 43 42.0876 43H8.91238C7.33504 43 6.05664 41.7816 6.05664 40.2783V7.72175ZM18.0702 36.8108V19.6514H12.2348V36.8108H18.0702ZM15.1537 17.3073C17.1879 17.3073 18.4542 15.9915 18.4542 14.3433C18.4177 12.6594 17.1904 11.3793 15.1926 11.3793C13.1948 11.3793 11.8896 12.6617 11.8896 14.3433C11.8896 15.9915 13.1559 17.3073 15.1148 17.3073H15.1537ZM27.0822 36.8108V27.2276C27.0822 26.7146 27.1211 26.2016 27.2766 25.8359C27.6971 24.8123 28.6571 23.7506 30.2709 23.7506C32.3829 23.7506 33.2263 25.3229 33.2263 27.6314V36.8108H39.0617V26.9688C39.0617 21.6962 36.1841 19.2453 32.344 19.2453C29.2477 19.2453 27.8599 20.9078 27.0822 22.0786V22.138H27.0433C27.0562 22.1182 27.0692 22.0984 27.0822 22.0786V19.6514H21.2492C21.3221 21.2616 21.2492 36.8108 21.2492 36.8108H27.0822Z" fill="#25282B"/>
</svg>
